Patient4_TMGait_0pt3_02_right_19_EMG.mot
version=1
nRows=13
nColumns=33
inDegrees=no
endheader
time	1LAddLong	2LGlutMax	3LGlutMed	4LIliopsoas	5LSemiMemb	6LBicFemLong	7LRecFem	8LVastMed	9LVastLat	10LGasMed	11LTibAnt	12lTibPost	13LPeroneusLong	14LSol	15LExtDigLong	16LFlexDigLong	17RAddLong	18RGlutMax	19RGlutMed	20RIliopsoas	21RSemiMemb	22RBicFemLong	23RRecFem	24RVastMed	25RVastLat	26RGasMed	27RTibAnt	28RTibPost	29RPeroneusLong	30RSol	31RExtDigLong	32RFlexDigLong
36	-0.010071	0.14511	0.058899	0.008545	0.014801	0.15518	-0.037079	-0.003204	0.061798	0.080872	0.075836	-0.013123	0.033264	-0.21301	0.063934	-0.001373	-0.065155	0.68237	0.097046	0.005188	-0.001526	-0.09613	0.17792	0.024719	0.062561	-0.00061	0.02533	-0.2565	0.17334	-0.82413	-0.001984	-0.011139
36.001	-0.007782	0.10269	-0.008392	0.020142	0.000305	0.33722	0.017242	-0.007324	0.020752	0.26276	-0.010223	-0.00412	-0.12207	-0.15427	-0.0177	-0.002747	-0.086365	0.72861	0.14389	-0.017395	-0.00473	-0.085144	0.22522	0.053101	0.068359	0	0.049133	-0.027466	0.20645	-0.34271	-0.004425	-0.012512
36.002	-0.006866	0.099945	-0.088501	0.016174	0.000305	0.34393	0.055695	-0.005798	-0.0914	0.36774	-0.046997	0.00412	-0.037842	-0.039368	-0.057526	-0.003967	-0.13641	0.76965	0.32364	-0.059052	0.011444	-0.06958	0.22201	0.05127	0.072174	-0.009766	0.069733	-0.076752	0.29007	-0.42648	-0.002289	-0.015717
36.003	-0.021362	0.10757	-0.1619	-0.012665	-0.021973	0.39307	0.043335	0.000305	-0.089111	0.31723	-0.024414	0.004883	-0.051575	-0.018616	-0.10956	-0.000763	-0.11597	0.73608	0.39108	0.017242	0.015869	-0.053253	0.19882	0.027924	0.082703	-0.0383	0.032959	0.061188	0.42313	-0.098877	-0.002136	-0.014801
36.004	-0.033875	0.11414	-0.16403	0.00351	-0.051727	0.57068	0.059357	-0.005188	-0.025482	0.015564	0.010376	0.001984	0.62241	-0.069275	-0.11673	0.016022	-0.084686	0.74966	0.24338	0.13001	0.010376	-0.049286	0.21042	-0.002747	0.084686	-0.037537	-0.014191	-0.081024	0.36102	0.35019	0.000305	-0.009918
36.005	-0.037689	0.081329	-0.06134	0.011749	-0.076599	0.62668	0.031738	0.026855	-0.030518	0.06424	0.03418	0.013733	0.47134	0.011139	-0.1329	0.018463	-0.10956	0.78033	0.23346	0.16266	-0.011597	-0.088196	0.2269	-0.028839	0.075989	-0.053558	-0.037231	-0.030975	0.3569	0.33783	0.000458	-0.01297
36.006	-0.037231	0.10468	0.14908	0.015106	-0.047302	0.51117	0.021057	0.027771	-0.028839	0.20844	0.021973	-0.009003	0.083008	0.14908	0.012512	0.019684	-0.063477	0.81055	0.18188	0.099945	-0.03891	-0.098267	0.24796	-0.035858	0.061646	-0.052185	-0.022278	0.12039	0.016785	0.58899	-0.002289	-0.012512
36.007	-0.023499	0.1297	0.20706	0.016785	0.028076	-0.073242	-0.023041	-0.005188	0.025177	0.3154	-0.037231	-0.005493	0.49637	0.24521	-0.011444	0.024414	-0.009155	0.7988	0.15442	0.023346	-0.054779	-0.13153	0.30106	-0.049438	0.074005	-0.010376	0.011597	0.092163	-0.31433	1.0866	-0.002441	-0.000153
36.008	-0.020142	0.1265	-0.015106	0.016327	0.018768	0.20279	0.013275	0.00824	0.009613	0.30411	-0.08255	0.016785	0.21988	0.15762	0.061951	0.020447	0.052795	0.78583	0.16235	-0.053406	-0.049133	-0.15518	0.32394	-0.13107	0.045776	0.022736	0.001526	0.036469	-0.34225	0.63721	0.001984	0.005035
36.009	-0.018311	0.15335	0.081329	-0.0177	-0.010376	0.32257	0.013275	0.002899	0.010529	0.20142	-0.033569	-0.007324	-0.16663	-0.008392	-0.062561	0.007019	0.10498	0.79392	0.13336	-0.11505	-0.059204	-0.1593	0.30228	-0.09903	0.062103	0.019989	-0.012665	0.029144	-0.17258	-0.10574	0.001526	-0.00061
36.01	0.007477	0.15961	0.080261	-0.008392	-0.027313	0.043488	-0.00946	-0.002289	0.062866	-0.25284	-0.012817	0.010986	-0.47531	-0.18341	-0.23377	-0.009003	0.054626	0.77331	0.22629	-0.17654	-0.052338	-0.09491	0.27054	-0.040741	0.062866	0.009613	-0.025177	-0.006866	0.010071	-0.46127	-0.001678	0.002594
36.011	0.026398	0.10773	-0.027008	0.020447	0.009003	-1.1252	-0.028534	0.004272	0.11322	-0.20035	-0.006561	0.009613	-0.79468	-0.32989	-0.17395	-0.007324	-0.001526	0.71777	0.22827	-0.17059	-0.013275	-0.062103	0.29175	-0.001984	0.086823	0.007935	-0.054474	-0.026398	-0.03067	-0.65063	0.002136	0.002594
36.012	0.019073	0.11688	-0.031433	0.011749	0.027008	-1.1063	0.036316	0.012054	0.22858	-0.090485	-0.038147	0.010834	-0.21881	-0.059509	0.013275	0.005188	-0.019073	0.75668	0.3093	-0.12512	0.001526	-0.062103	0.29923	0.017853	0.072479	-0.005341	-0.035858	-0.027008	0.37613	-0.51041	-0.005493	-0.002289
